<?xml version="1.0" encoding="UTF-8" standalone="no"?>
<svg
   data-v-70b83f88=""
   version="1.0"
   width="188.05"
   height="118.816"
   viewBox="0 0 188.05 118.816"
   preserveAspectRatio="xMidYMid"
   color-interpolation-filters="sRGB"
   id="svg38"
   sodipodi:docname="logo.svg"
   inkscape:version="1.2.2 (732a01da63, 2022-12-09)"
   xmlns:inkscape="http://www.inkscape.org/namespaces/inkscape"
   xmlns:sodipodi="http://sodipodi.sourceforge.net/DTD/sodipodi-0.dtd"
   xmlns="http://www.w3.org/2000/svg"
   xmlns:svg="http://www.w3.org/2000/svg">
  <sodipodi:namedview
     id="namedview40"
     pagecolor="#ffffff"
     bordercolor="#000000"
     borderopacity="0.25"
     inkscape:showpageshadow="2"
     inkscape:pageopacity="0.0"
     inkscape:pagecheckerboard="0"
     inkscape:deskcolor="#d1d1d1"
     showgrid="false"
     inkscape:zoom="3.776"
     inkscape:cx="21.318856"
     inkscape:cy="41.313559"
     inkscape:window-width="1920"
     inkscape:window-height="1129"
     inkscape:window-x="1272"
     inkscape:window-y="-8"
     inkscape:window-maximized="1"
     inkscape:current-layer="svg38" />
  <!---->
  <g
     data-v-70b83f88=""
     fill="#ffffff"
     class="icon-text-wrapper icon-svg-group iconsvg"
     transform="translate(5.0000005,4.9999472)"
     id="g34">
    <path
       d="M 5.84,-5.84 H 2.92 V 0 H 0 v -12.65 q 0,-1.94 1.95,-1.94 v 0 h 7.78 v 2.91 H 2.92 v 2.92 h 3.89 z m 5.84,-4.86 h 2.91 v 7.78 h 5.84 l 0.01,-7.78 h 2.92 v 8.75 Q 23.36,0 21.42,0 v 0 h -7.8 q -1.94,0 -1.94,-1.95 v 0 z m 25.29,-0.01 -0.96,2.92 h -7.79 v 0.98 h 6.81 q 1.94,0 1.94,1.94 v 0 2.91 q 0,1.95 -1.94,1.95 v 0 H 25.3 v -2.91 l 8.75,-0.01 V -3.9 h -6.81 q -1.94,0 -1.94,-1.94 v 0 -2.92 q 0,-1.95 1.94,-1.95 v 0 z m 1.95,-3.88 h 2.92 l -0.98,2.91 h -1.94 z m 0,14.59 h 2.92 v -10.7 h -2.92 z m 16.54,-8.76 v 6.81 Q 55.46,0 53.51,0 v 0 h -7.78 q -1.95,0 -1.95,-1.95 v 0 -6.81 q 0,-1.94 1.95,-1.94 v 0 h 7.78 q 1.95,0 1.95,1.94 z m -2.92,0.98 H 46.7 v 4.86 h 5.84 z M 60.32,0 h -2.91 v -8.76 q 0,-1.94 1.94,-1.94 v 0 h 7.79 q 1.95,0 1.95,1.94 v 0 V 0 h -2.92 l -0.01,-7.78 h -5.84 z m 29.19,-2.94 v 2.93 H 77.84 v -6.82 q 0,-1.94 1.94,-1.94 v 0 h 6.81 v -2.92 l -7.78,0.01 -0.97,-2.92 h 9.73 q 1.94,0 1.94,1.94 v 0 4.87 q 0,1.93 -1.94,1.93 v 0 h -6.81 v 2.93 z M 101.19,0 h -2.92 v -12.66 q 0,-1.94 1.95,-1.94 v 0 H 108 q 1.95,0 1.95,1.94 v 0 V 0 h -2.92 v -3.9 h -5.84 z m 5.84,-6.82 v -4.87 h -5.84 v 4.87 z M 114.81,0 h -2.92 v -8.76 q 0,-1.94 1.95,-1.94 v 0 h 7.79 q 1.95,0 1.95,1.94 v 0 V 0 h -2.92 l -0.01,-7.78 h -5.84 z m 22.38,-1.95 v 0 q 0,1.95 -1.95,1.95 v 0 h -7.78 q -1.95,0 -1.95,-1.95 v 0 -6.81 q 0,-1.94 1.95,-1.94 v 0 h 5.84 l -0.98,2.92 h -3.89 v 4.86 h 5.84 v -11.67 h 2.92 z M 142.05,0 h -2.91 v -8.76 q 0,-1.94 1.94,-1.94 v 0 h 5.83 l -0.97,2.92 h -3.89 z m 17.52,-8.76 v 6.81 q 0,1.95 -1.95,1.95 v 0 h -7.78 q -1.95,0 -1.95,-1.95 v 0 -6.81 q 0,-1.94 1.95,-1.94 v 0 h 7.78 q 1.95,0 1.95,1.94 z m -2.92,0.98 h -5.84 v 4.86 h 5.84 z m 4.86,-6.81 h 2.92 l -0.97,2.91 h -1.95 z m 0,14.59 h 2.92 v -10.7 h -2.92 z m 16.54,-1.95 v 0 q 0,1.95 -1.94,1.95 v 0 h -7.79 q -1.94,0 -1.94,-1.95 v 0 -6.81 q 0,-1.94 1.94,-1.94 v 0 h 5.84 l -0.97,2.92 h -3.89 v 4.86 h 5.84 v -11.67 h 2.91 z"
       transform="translate(-4.7412109e-7,108.81564)"
       id="path24"
       style="fill:#ff6b00;fill-opacity:0.75"
       inkscape:label="path24" />
    <rect
       width="18.360001"
       height="65.150002"
       fill="#ffffff"
       id="rect8"
       style="overflow:visible;fill:#ff6b00;fill-opacity:1"
       transform="matrix(1.3386881,0,0,1.3386881,59.025002,5.2840576e-5)"
       x="0"
       y="0" />
    <rect
       x="21.84"
       y="23.389999"
       width="16.290001"
       height="18.360001"
       fill="#ffffff"
       id="rect10"
       style="overflow:visible;fill:#ff6b00;fill-opacity:1"
       transform="matrix(1.3386881,0,0,1.3386881,59.025002,5.2840576e-5)" />
    <rect
       x="21.84"
       width="22.98"
       height="13.28"
       fill="#ffffff"
       id="rect12"
       style="overflow:visible;fill:#ff6b00;fill-opacity:1"
       transform="matrix(1.3386881,0,0,1.3386881,59.025002,5.2840576e-5)"
       y="0" />
  </g>
  <defs
     v-gra="od"
     id="defs36" />
</svg>
